<?xml version="1.0" standalone="no"?>
<!DOCTYPE svg PUBLIC "-//W3C//DTD SVG 20010904//EN"
 "http://www.w3.org/TR/2001/REC-SVG-20010904/DTD/svg10.dtd">
<svg version="1.0" xmlns="http://www.w3.org/2000/svg"
 width="501.000000pt" height="498.000000pt" viewBox="0 0 501.000000 498.000000"
 preserveAspectRatio="xMidYMid meet">

<g transform="translate(0.000000,498.000000) scale(0.100000,-0.100000)"
fill="#000000" stroke="none">
<path d="M2450 4270 c-117 -16 -211 -55 -304 -127 -43 -33 -120 -123 -151
-177 -9 -16 -34 -17 -263 -17 -271 1 -308 -5 -332 -49 -7 -13 -16 -104 -21
-214 -14 -289 -19 -336 -33 -336 -27 0 -274 -132 -327 -174 -97 -78 -139 -161
-119 -237 11 -39 66 -96 118 -123 44 -23 188 -62 255 -71 l59 -7 -2 -96 c-2
-133 -3 -130 25 -157 l24 -25 1138 0 c879 1 1142 3 1154 13 40 30 41 48 30
315 -6 142 -13 283 -16 314 l-6 57 83 42 c171 86 323 215 346 294 33 115 -60
191 -278 225 -93 14 -126 11 -51 -5 201 -44 306 -113 287 -190 -16 -65 -154
-170 -318 -244 l-66 -29 -6 81 c-3 45 -11 181 -16 302 -6 121 -13 232 -16 247
-3 14 -17 35 -32 45 -24 16 -55 18 -297 21 l-270 3 -30 51 c-16 27 -60 79 -97
113 -125 118 -303 177 -468 155z m275 -232 c3 -13 4 -174 3 -358 -3 -300 -5
-335 -19 -338 -9 -2 -67 38 -130 88 l-113 91 -166 -7 c-134 -5 -169 -4 -175 6
-9 15 43 67 365 361 107 98 203 179 212 179 10 0 20 -10 23 -22z m-792 -240
c-31 -205 27 -395 163 -533 134 -136 347 -202 536 -166 220 43 412 228 464
447 16 70 16 247 -1 287 -7 16 8 17 228 17 l234 0 7 -137 c24 -470 24 -487 7
-501 -23 -19 -302 -107 -478 -152 -483 -123 -985 -196 -1415 -207 l-238 -6 0
74 c0 41 9 259 20 484 11 226 20 418 20 428 0 16 18 17 230 17 l231 0 -8 -52z
m-576 -595 c-4 -43 -9 -138 -13 -210 l-7 -133 -28 0 c-36 0 -152 25 -207 44
-74 27 -102 52 -102 94 0 32 8 44 63 97 62 58 257 185 286 185 11 0 12 -15 8
-77z m2247 -353 c4 -107 9 -219 12 -247 l6 -53 -1095 0 c-746 0 -1098 3 -1102
10 -4 6 -4 44 0 84 l7 73 262 6 c143 3 322 13 396 22 479 57 953 166 1330 307
74 27 142 54 150 58 21 12 26 -27 34 -260z"/>
<path d="M1115 2345 c-45 -44 -29 -125 35 -179 l32 -26 1332 0 1333 0 33 23
c69 47 87 132 39 183 l-22 24 -1379 0 -1379 0 -24 -25z m1829 -61 c20 -20 20
-33 -1 -56 -15 -17 -42 -18 -424 -18 -357 0 -410 2 -423 16 -21 21 -20 51 2
63 11 7 166 11 424 11 357 0 409 -2 422 -16z"/>
<path d="M2079 1681 c-40 -40 -40 -89 0 -133 40 -45 96 -46 141 -3 65 62 21
165 -70 165 -33 0 -48 -6 -71 -29z"/>
<path d="M3260 1541 l0 -119 -31 15 c-80 40 -182 24 -253 -38 -144 -127 -105
-392 68 -464 53 -22 128 -21 176 3 31 15 40 16 40 6 0 -11 19 -14 84 -14 l84
0 1 342 c0 188 -2 353 -5 365 -6 22 -11 23 -85 23 l-79 0 0 -119z m-34 -252
c13 -13 28 -38 34 -58 34 -125 -82 -222 -172 -142 -27 24 -32 36 -35 87 -5 66
18 117 60 134 33 14 87 4 113 -21z"/>
<path d="M480 1270 l0 -340 90 0 89 0 3 140 3 141 86 -118 c47 -65 92 -128
100 -140 13 -21 21 -23 116 -23 57 0 103 2 103 5 0 3 -55 78 -123 168 -68 89
-127 168 -131 175 -6 10 133 198 232 315 14 16 9 17 -84 17 l-100 0 -99 -130
-100 -129 -3 129 -3 130 -89 0 -90 0 0 -340z"/>
<path d="M1195 1436 c-88 -41 -135 -115 -143 -225 -8 -121 46 -224 143 -271
55 -27 139 -28 191 -4 28 13 39 15 42 6 2 -8 30 -12 83 -12 l79 0 0 260 0 260
-79 0 c-59 0 -80 -4 -84 -14 -5 -12 -12 -11 -44 5 -52 26 -126 25 -188 -5z
m176 -132 c74 -38 78 -178 7 -228 -29 -21 -87 -20 -117 0 -26 19 -51 71 -51
108 0 43 31 106 59 121 34 19 65 19 102 -1z"/>
<path d="M1893 1441 c-36 -17 -43 -18 -43 -5 0 12 -15 14 -82 12 l-83 -3 -3
-257 -2 -258 85 0 85 0 0 150 c0 88 5 159 11 173 14 32 43 46 99 49 l45 3 0
75 0 75 -35 3 c-19 1 -54 -7 -77 -17z"/>
<path d="M2545 1445 c-25 -9 -43 -11 -49 -5 -6 6 -45 10 -88 10 l-78 0 0 -260
0 -260 83 0 82 0 -3 97 c-5 143 6 241 29 264 23 23 86 26 115 5 17 -13 19 -30
22 -190 l3 -176 86 0 85 0 -4 193 c-5 208 -12 241 -70 295 -46 42 -137 54
-213 27z"/>
<path d="M3678 1450 c-108 -32 -178 -137 -178 -263 1 -117 44 -188 143 -237
52 -25 76 -31 137 -32 45 -1 98 6 133 16 l57 17 0 70 c0 64 -2 70 -17 64 -46
-17 -122 -27 -170 -22 -51 5 -113 37 -113 58 0 5 70 9 165 9 l165 0 6 26 c11
42 -4 132 -31 183 -29 58 -72 96 -123 111 -43 12 -135 12 -174 0z m132 -145
c17 -9 30 -17 30 -19 0 -3 3 -11 6 -20 5 -14 -6 -16 -85 -16 -50 0 -91 4 -91
8 0 5 10 18 23 29 39 36 72 41 117 18z"/>
<path d="M2070 1190 l0 -260 80 0 80 0 0 260 0 260 -80 0 -80 0 0 -260z"/>
<path d="M4010 1448 c0 -2 40 -118 89 -258 l89 -255 97 0 98 0 88 250 c48 138
88 253 89 258 0 4 -37 7 -83 7 l-83 0 -48 -147 c-27 -82 -52 -152 -56 -157 -5
-4 -31 61 -58 145 l-50 154 -86 3 c-47 1 -86 1 -86 0z"/>
</g>
</svg>
